<svg xmlns="http://www.w3.org/2000/svg"  viewBox="0 0 16.007 20">
  <g id="trading-report" transform="translate(-154.656 -105.7)">
    <path id="Path_426" data-name="Path 426" d="M254.894,109.493a.456.456,0,0,1-.442.451c-.07,0-.139,0-.209,0-.139,0-.279,0-.418,0h-6.447a.857.857,0,0,0-.1,0,.139.139,0,0,0-.041,0h-.02c-.012,0-.029,0-.041,0-.041,0-.086,0-.131,0a1.073,1.073,0,0,1-.115,0c-.012,0-.02,0-.033,0a1.107,1.107,0,0,1-.168-.033.2.2,0,0,0-.029-.012l-.053-.025-.025-.012a.09.09,0,0,1-.02-.016c-.008-.008-.016-.012-.02-.016-.209-.188-.152-.532-.152-.786v-.84a1.048,1.048,0,0,1,.6-.963.708.708,0,0,1,.172-.057.152.152,0,0,1,.037-.008.037.037,0,0,1,.02,0c.012,0,.029,0,.037-.008a.126.126,0,0,1,.037,0c.008,0,.012,0,.02,0s.037,0,.057-.008a.037.037,0,0,0,.02,0c.012,0,.029,0,.041,0a.139.139,0,0,0,.041,0h1.376a1.9,1.9,0,0,1,.4-.815,1.755,1.755,0,0,1,.758-.516l.094-.033.094-.025c.033-.008.061-.012.1-.02a1.875,1.875,0,0,1,.34-.033c.061,0,.127,0,.188.008a1.029,1.029,0,0,1,.111.016,1.454,1.454,0,0,1,.291.078,1.845,1.845,0,0,1,1.171,1.335h1.3a1.31,1.31,0,0,1,.586.111,1.045,1.045,0,0,1,.573.905v1.077c-.008.1,0,.18-.008.262Z" transform="translate(-88.01)" fill="#dda100"/>
    <path id="Path_427" data-name="Path 427" d="M170.657,169.12c0-.446.012-.9,0-1.348a.824.824,0,0,0-.807-.815c-.123,0-.246,0-.369,0H167.56v1.106a1.915,1.915,0,0,1,0,.213,1.124,1.124,0,0,1-1.09,1.085c-.074,0-.147,0-.233,0s-.147,0-.221,0-.135,0-.2,0h-6.439c-.033,0-.074,0-.119,0-.061,0-.135.008-.213.008a1.325,1.325,0,0,1-.918-.3,1.146,1.146,0,0,1-.356-.688,2.489,2.489,0,0,1-.016-.483c0-.041,0-.082,0-.115v-.827h-1.978a2.849,2.849,0,0,0-.418.012.812.812,0,0,0-.7.807c0,.139,0,.283,0,.422V183.62a.819.819,0,0,0,.541.778,1.613,1.613,0,0,0,.561.045h13.816a1.262,1.262,0,0,0,.684-.111.829.829,0,0,0,.4-.721V169.12Zm-12.378,8.364.422-.422,1.856-1.856,1.159-1.159a.455.455,0,0,1,.635,0l.922.922,1.962-1.962.131-.131-.7-.7a.34.34,0,0,1,.238-.573h2.028a.343.343,0,0,1,.336.336v2.032a.286.286,0,0,1-.041.156s0,0,0,.008a.2.2,0,0,1-.057.074.3.3,0,0,1-.18.09.288.288,0,0,1-.242-.049s0,0-.008,0a.2.2,0,0,1-.045-.037l-.254-.254-.446-.446-2.4,2.4a.455.455,0,0,1-.635,0l-.922-.922-.106.106-1.856,1.856-1.159,1.159a.459.459,0,0,1-.635,0,.449.449,0,0,1,.008-.627Zm8.745,4.276h-.016c-.352.008-.709,0-1.065,0h-7.656a.446.446,0,0,1,0-.893h.016c.217-.008.438,0,.655,0v-1.43a.561.561,0,1,1,1.122,0v1.43H162.1v-2.929a.561.561,0,0,1,1.122,0v2.929h2.015V176.44a.561.561,0,0,1,1.122,0v4.428h.672a.446.446,0,1,1,0,.893Z" transform="translate(0 -58.746)" fill="#dda100"/>
  </g>
</svg>
