<?xml version="1.0" encoding="utf-8"?>
<!-- Generator: Adobe Illustrator 24.2.3, SVG Export Plug-In . SVG Version: 6.00 Build 0)  -->
<svg version="1.1" id="Layer_1" xmlns="http://www.w3.org/2000/svg" xmlns:xlink="http://www.w3.org/1999/xlink" x="0px" y="0px"
	 viewBox="0 0 57.9 15.3" style="enable-background:new 0 0 57.9 15.3;" xml:space="preserve">
<style type="text/css">
	.st0{fill:#0C91D4;}
	.st1{fill:#0E68B2;}
	.st2{fill:#FF0707;}
</style>
<g>
	<path class="st0" d="M-1192.9,712.9c20.5-49.5,40.9-98.3,61-147.1c28.7-69.7,57.5-139.4,85.6-209.3c11.1-27.6,34-38.3,59.9-39.2
		c26.2-0.9,50.9,8.5,62.2,35.5c19.6,47,40.7,93.4,58.8,141.1c15.4,40.5,33.9,79.9,50.7,119.8c13.9,32.9,27.3,66,40.9,98.8
		C-858.6,773.7-1069.3,787.4-1192.9,712.9z"/>
	<path class="st1" d="M-917.6-128.4c46.3,5.5,88.6,19.1,129.2,38.4c31.2,14.9,58.7,35.2,86.6,55.8C-657-1-623.9,41.2-595,87.3
		c15.5,24.7,28.4,51.3,37.5,79.4c5.7,17.4,1.8,23.2-16.4,23.2c-87.9,0.2-175.9,0-263.8,0.2c-9.1,0-16.1-1.9-19.6-11.3
		c-23.6-62.8-51.5-124.2-60.4-191.6C-922.7-50.5-922.4-88.1-917.6-128.4z"/>
	<path class="st1" d="M-1049.2-126.9c9.5,46.7,2.4,91.4-5.7,136.3c-10.3,57.2-29.5,111.5-51.2,165.2c-4.9,12.1-11.7,15.6-23.9,15.6
		c-86.8-0.4-173.7-0.2-260.5-0.2c-18.4,0-21.9-4-16.3-20.7c50.9-150.2,185.2-270.1,350.9-296.6
		C-1054.3-127.7-1052.5-127.2-1049.2-126.9z"/>
	<path class="st0" d="M-537.7,316.2c7.3,62.5-6.1,119.1-29.1,174.2c-20.4,49-48.8,92.8-84.9,131.6c-13.4,14.4-18.2,13.4-25.7-4.8
		c-37.9-92.1-75.7-184.2-113.4-276.3c-6.5-15.9-2.5-24.4,12.7-24.5C-698.5,316-618.8,316.2-537.7,316.2z"/>
	<path class="st0" d="M-1299.3,630.6c-7.4,0.3-10.1-5.7-13.9-9.9c-73.4-80.9-112.3-176.2-118.4-285c-0.7-13.1,2.6-20.2,18.6-20
		c72.6,0.9,145.3,0.3,218,0.4c23.6,0,27.5,5.9,18.4,27.6c-37.7,90.2-75.3,180.5-113.1,270.7
		C-1292.1,620.2-1292.9,627.2-1299.3,630.6z"/>
</g>
<g>
	<path id="Path_487" class="st2" d="M4.2,12l1.7-2.1H8l-2.6,3.3c-0.2,0.3-0.6,0.5-1,0.5H2.5L3,12.2h0.9C4,12.3,4.1,12.2,4.2,12z
		 M16.5,2.2L16.5,2h1.7l-0.3,0.8c0,0.7-0.6,1.3-1.4,1.3c-0.1,0-0.2,0-0.3-0.1h-3.4L9.5,5.2h2.4l0.9-0.3h3.8l-8,2.9h5.5
		c0.2,0,0.4-0.1,0.5-0.4L15,6.4h1.8l-0.6,1.6c-0.1,0.8-0.8,1.4-1.6,1.3c-0.1,0-0.2,0-0.3-0.1h-3.4l-1.5,4.4H7.5L9,9.4H4l0.5-1.5
		L8,6.7H4.9l0.5-1.6L9.2,4H5.8l0.5-1.5H16C16.2,2.5,16.4,2.4,16.5,2.2L16.5,2.2z M11.7,13.1l-0.3-3.2h2l0.2,2.1
		c0,0.2,0.1,0.3,0.3,0.3h0.7l-0.5,1.4h-1.8C11.9,13.8,11.7,13.6,11.7,13.1L11.7,13.1z"/>
	<polygon class="st2" points="17.4,11.5 16.8,13.6 15.8,13.1 16.4,11 	"/>
	<polygon class="st2" points="19.1,11.6 18.6,13.6 17.6,13.1 18,11.1 	"/>
	<polygon class="st2" points="20.2,12.7 19.3,12.3 19.9,11.1 20.9,11.5 	"/>
	<polygon class="st2" points="20,10.7 19.8,8.6 21.3,8.7 21.4,10.9 	"/>
	<path class="st2" d="M18.3,5.4L21.4,2h1.7l-3.3,3.7h0.6l1.2-1.3h1.8L19,9.3h2.3l-0.5,1.5h-4.3c0-1,2.1-3,2.7-3.6h-1.4L18.3,5.4z"/>
	<path class="st2" d="M21.7,11.8l1.8-3.6h1.6L23,12.6c-0.5,1.4-1.7,1-2.8,1.1l0.5-1.4C21.1,12.3,21.5,12.4,21.7,11.8L21.7,11.8z"/>
	<path class="st2" d="M26.5,2.6L26.7,2h2l-0.2,0.6h2.6L30.6,4h-4.1l-1.7,2.2H28c0.4,0.1,0.6-1.3,0.8-1.5h1.7c-0.5,1.3-0.7,3.6-2.7,3
		l-1.4,4.2c-0.4,0.8,1.2,0.3,1.5,0.4l-0.5,1.4c-0.8-0.2-3.7,0.6-2.9-1.1c0,0,1.7-4.8,1.7-4.8h-3.9c0-0.9,1.9-3.1,2.5-3.8h-1.2
		l0.5-1.4L26.5,2.6z"/>
	<path id="Path_489" class="st2" d="M31.1,11.6l5.4-5.7H39l-5.3,5.7h4.5l-0.6,1.8h-8.1l0.6-1.8H31.1z M31.2,6.5h0.6
		c0.3,0.1,0.6-0.1,0.9-0.5l1.2-1.3h2.4l-2.5,2.8c-0.5,0.6-1.2,0.9-2,0.9h-1.2L31.2,6.5z M33.7,4l0.6-1.8h7.2c0.2,0,0.3,0.1,0.4,0.4
		l0.6,1.9c0.2,0.4,0.4,0.7,0.7,0.6h0.4l-0.6,1.8h-1.3c-0.5,0-1-0.3-1.1-0.8l-0.6-1.7c0-0.2-0.2-0.4-0.4-0.4H33.7z M38.8,12.8
		l-1.3-3.9h2.4l1,2.8c0,0.1,0.1,0.2,0.3,0.2h0.2l-0.5,1.5h-1C39.3,13.4,38.9,13.1,38.8,12.8L38.8,12.8z"/>
	<path id="Path_490" class="st2" d="M42.4,13.8l1.8-5.1h10.8l-1.3,3.9c-0.2,0.8-1,1.3-1.8,1.3H42.4z M45.5,3.7h0.3
		c0.3,0,0.5-0.1,0.6-0.4l1.2-1.5h2.2L49,2.9h1.7l0.3-1h1.9l-0.4,1h4.6l-0.6,1.7H52l-0.6,1.9h5l-0.6,1.7H43.9l0.6-1.7h4.9L50,4.7
		h-2.3L47.4,5c-0.2,0.3-0.6,0.5-0.9,0.4h-1.7L45.5,3.7z M52.5,10.3h-7.1l-0.7,2h6.5c0.4,0.1,0.6-0.1,0.8-0.6L52.5,10.3z"/>
</g>
</svg>
