<svg xmlns="http://www.w3.org/2000/svg" width="26" height="26" viewBox="0 0 26 26">
  <path id="recharge" d="M88.534,78.849H87.61a.588.588,0,0,1-.261-.042A5,5,0,0,0,86.2,76.482a6.187,6.187,0,0,0-2.712-1.771,8.035,8.035,0,0,1,.886-3.115.381.381,0,0,0-.1-.432.551.551,0,0,0-.491-.129,6.027,6.027,0,0,0-4.146,2.7,17.287,17.287,0,0,0-3.124-.279,13.352,13.352,0,0,0-7.656,2.155,6.205,6.205,0,0,0-2.158,2.436q-.076.154-.144.314a3.419,3.419,0,0,1-.768-.329,1.507,1.507,0,0,1-.847-1.318,1.238,1.238,0,0,1,.815-1.194.405.405,0,0,0,.26-.559.531.531,0,0,0-.653-.223,2.108,2.108,0,0,0-1.416,1.976,2.327,2.327,0,0,0,1.3,2.036,4.522,4.522,0,0,0,1.02.428,7.641,7.641,0,0,0-.246,2.411c.109,2.231,1.982,3.837,3.091,4.6l.04.027c.163.108.2.133.138.3-.175.462-.5,1.122-.5,1.128l-.006.012a1.089,1.089,0,0,0,.033.966,1.394,1.394,0,0,0,.822.664l1.828.592a1.679,1.679,0,0,0,.522.083,1.5,1.5,0,0,0,1.378-.813c0-.005.246-.549.442-1A1.166,1.166,0,0,1,73.9,88c.083.006.215.03.365.057a11.613,11.613,0,0,0,2.257.206c1,0,1.683-.062,2.133-.1.218-.02.391-.036.506-.036h.047a.827.827,0,0,1,.046.1c.172.438.379.863.409.926a1.494,1.494,0,0,0,1.376.807,1.688,1.688,0,0,0,.523-.082l1.826-.593a1.4,1.4,0,0,0,.824-.665,1.086,1.086,0,0,0,.033-.964l-.293-.665a.4.4,0,0,0-.036-.064s0-.035,0-.038.043-.06.149-.109a6.727,6.727,0,0,0,3.069-2.8c.129-.232.2-.32.475-.32h.925a1.332,1.332,0,0,0,1.42-1.216V80.067A1.333,1.333,0,0,0,88.534,78.849ZM77.714,84.016a.89.89,0,0,1-.514.139H75.02v.616a.809.809,0,0,1-.234.539.693.693,0,0,1-.607.231,1.083,1.083,0,0,1-.623-.17.743.743,0,0,1-.28-.6v-.616H71.159a.773.773,0,0,1-.514-.17.443.443,0,0,1-.171-.416.554.554,0,0,1,.2-.447.728.728,0,0,1,.483-.169h2.118V81.875H71.159a.678.678,0,0,1-.5-.185.589.589,0,0,1-.187-.431.667.667,0,0,1,.2-.462.64.64,0,0,1,.483-.216h2.118l.031-.647q-.56-.555-1.028-1.048-.4-.431-.748-.8l-.467-.431a1.787,1.787,0,0,1-.28-.508.667.667,0,0,1,.125-.663.6.6,0,0,1,.685-.169,1.959,1.959,0,0,1,.654.354q.125.154.436.462l.654.647.841.832q.529-.493.965-.894.374-.339.748-.662t.529-.447a.921.921,0,0,1,.623-.246.682.682,0,0,1,.561.277q.4.462-.311,1.078-.187.154-.561.539t-.747.755q-.436.462-.965.955v.585h2.024a.879.879,0,0,1,.638.2.615.615,0,0,1,.2.447.675.675,0,0,1-.187.478.746.746,0,0,1-.623.169l-2.024.031-.031,1.048h1.993q.872,0,.872.647A.443.443,0,0,1,77.714,84.016Zm5.766-3.333a1.009,1.009,0,1,1,1.086-1.007A1.05,1.05,0,0,1,83.48,80.683Zm.03-1.869-5.221-6.887a5.57,5.57,0,1,0-9.04,1.461C70.667,72.58,73.612,71.417,78.288,71.927Zm-3.171-.543H71.4V67.671h3.713Z" transform="translate(-63.955 -63.959)" fill="#f55d48" fill-rule="evenodd"/>
</svg>
