<svg xmlns="http://www.w3.org/2000/svg"  viewBox="0 0 25.668 20">
  <g id="card" transform="translate(-78.4 -138.438)">
    <path id="Path_444" data-name="Path 444" d="M157.892,150.8l-1.673-10.563a2.139,2.139,0,0,0-2.448-1.777l-17.96,2.845a1.072,1.072,0,0,0-.889,1.224l.147.926h18.556a2.14,2.14,0,0,1,2.136,2.136v6.626l1.234-.2a1.062,1.062,0,0,0,.9-1.219Z" transform="translate(-53.837 0)" fill="#a2ba3b"/>
    <path id="Path_445" data-name="Path 445" d="M429.1,323.9h3.209v3.209H429.1Z" transform="translate(-334.125 -176.697)" fill="#a2ba3b"/>
    <path id="Path_446" data-name="Path 446" d="M99.791,267.3H79.473a1.072,1.072,0,0,0-1.073,1.073v11.764a1.072,1.072,0,0,0,1.073,1.073H99.791a1.072,1.072,0,0,0,1.073-1.073V268.373a1.078,1.078,0,0,0-1.073-1.073Zm-19.25,3.748H89.1a.534.534,0,1,1,0,1.068H80.541a.534.534,0,1,1,0-1.068Zm0,2.136h6.418a.534.534,0,1,1,0,1.068H80.541a.534.534,0,1,1,0-1.068Zm11.23,5.884a.534.534,0,0,1-.534.534h-10.7a.537.537,0,0,1-.534-.534v-2.136a.534.534,0,0,1,.534-.534h10.7a.534.534,0,0,1,.534.534Zm7.486-5.35a.534.534,0,0,1-.534.534H94.446a.534.534,0,0,1-.534-.534v-4.273a.534.534,0,0,1,.534-.534h4.277a.534.534,0,0,1,.534.534Z" transform="translate(0 -122.772)" fill="#a2ba3b"/>
    <path id="Path_447" data-name="Path 447" d="M135.1,482.3h9.623v1.073H135.1Z" transform="translate(-54.02 -327.61)" fill="#a2ba3b"/>
  </g>
</svg>
