<svg xmlns="http://www.w3.org/2000/svg" width="22.232" height="20" viewBox="0 0 22.232 20">
  <path id="withdrawal" d="M20.83,1.867A1.879,1.879,0,0,0,18.951,0H1.876A1.876,1.876,0,0,0,0,1.867V3.951H20.83ZM16.689,8.242A6.25,6.25,0,0,1,20.83,9.8V6.749H0V14.6a1.878,1.878,0,0,0,1.876,1.867h8.848a6.276,6.276,0,0,1,5.966-8.224Zm-5.1,4.155a5.561,5.561,0,0,1,1.191-1.743,5.729,5.729,0,0,1,1.761-1.185,5.322,5.322,0,0,1,2.135-.434,5.393,5.393,0,0,1,2.162.434A5.668,5.668,0,0,1,21.792,12.4a5.17,5.17,0,0,1,.44,2.12,5.229,5.229,0,0,1-.44,2.141,5.644,5.644,0,0,1-1.2,1.749A5.509,5.509,0,0,1,16.674,20a5.415,5.415,0,0,1-2.135-.422,5.523,5.523,0,0,1-1.761-1.17,5.622,5.622,0,0,1-1.191-1.749,5.194,5.194,0,0,1-.44-2.141,5.114,5.114,0,0,1,.44-2.12ZM13.57,17.09a2.324,2.324,0,0,1,2.18-1.526v2.328a.582.582,0,0,0,1.064.326l3.261-3.257a.584.584,0,0,0,.039-.863l-3.389-3.389,0,0a.571.571,0,0,0-.389-.148.583.583,0,0,0-.582.582v1.761a2.656,2.656,0,0,0-2.18,4.184Zm0,0" fill="#1390fc"/>
</svg>
