<?xml version="1.0" encoding="utf-8"?>
<!-- Generator: Adobe Illustrator 24.2.3, SVG Export Plug-In . SVG Version: 6.00 Build 0)  -->
<svg version="1.1" id="Layer_1" xmlns="http://www.w3.org/2000/svg" xmlns:xlink="http://www.w3.org/1999/xlink" x="0px" y="0px"
	 viewBox="0 0 1024 1024" style="enable-background:new 0 0 1024 1024;" xml:space="preserve">
<g>
	<path d="M878.7,346.1c-0.6,0-1.1,0.1-1.7,0.1C838.1,177.9,689.6,52.3,511.5,52.3c-183,0-334.9,132.5-368.6,307.7
		c-32.8,5.9-57.7,34.7-57.7,69.5v139.3c0,39,31.3,70.7,70,70.7c21.8,0,41-10.3,53.9-26.1C240,695.2,303,761.2,382.7,796c0,0,0,0,0,0
		c0,0,0,0,0,0c0.2-0.4,1.7-3.3,3.5-5.7c1.3-1.6,2.7-3,3.9-3c1.2,0,2.4,0.5,3.4,1.2c-18.5-13.7-85.1-84.3-99.5-182.9
		c-6.3-43.4,26.1-85.9,64-93c60.7-11.3,121.1-24.2,181.9-35.3c38.6-7,65-28.2,81.1-63.5c3.4-7.3,8-21.3,10.8-41.2
		c0.4-2.5,0.7-5.1,0.9-7.7c0.7-3.6,3.6-6.3,7.4-6.3c2.5,0,7.7,2.1,7.7,2.1c2.5,3.7,5.3,7.8,8.3,12.4
		c25.2,38.7,63.8,107.9,69.9,180.5c7.8,92.8,3.5,156.3-67.5,221.3c-0.1,0.1-0.2,0.2-0.3,0.3c-1,1.1-1.6,2.5-1.6,4
		c0,2,1.1,3.7,2.6,4.7c0.6,0.2,1.2,0.6,1.8,0.8c0.5,0.1,0.9,0.3,1.4,0.3c0.5,0,0.9-0.2,1.3-0.3c1-0.5,2-1.1,3-1.7
		c71.8-39.6,126.9-105.6,152.3-185.1c10.3,15.3,26.4,26.3,45.2,30.2c-30.1,136.7-152,222.3-303,235.3c-9-22.5-31.3-38.4-57.5-38.4
		c-34.2,0-61.9,27.1-61.9,60.4c0,33.4,27.7,60.4,61.9,60.4c27.5,0,50.6-17.7,58.6-42c174.9-14.2,315-118.1,344.3-279.6
		c25.8-10.8,44-36.2,44-65.8v-141C950.5,378,918.4,346.1,878.7,346.1z M504.6,90.3c263.4,2.6,340.2,234.6,337,244.3
		c-2.5,3.4-25.6,48.1-27.5,51.9c-1.4-3.7-2.8-7.4-4.3-11c-5.5-13.3-11.8-26.2-19-38.6c-7.8-12.2-17.4-26.5-28.7-41.9
		c-59.1-73.4-149.4-120.3-250.8-120.3c-131.3,0-244.1,78.8-294.6,191.7c-2.7,6.1-11.5,35.3-13.8,41.6c-2.3-2.8-25.6-39.7-25.6-39.7
		S241.2,87.7,504.6,90.3z M920.5,558.4c0,16.6-10,31.6-25.6,38.1l-11.8,4.9l-13-2.7c-10.7-2.2-20.3-8.6-26.3-17.5l-34.6-51.4
		l-18.9,59c-8.4,26.2-20.3,50.8-35.5,73.5c5.5-33.7,4.4-69.5,0.9-111.2c-3.3-38.8-15.2-80.6-35.4-124c-8.3-17.9-17.9-35.7-28.6-53.4
		c-6.1-10.1-12.5-20-19.4-29.9c0,0-12.3-16.1-32.4-15.1c-20.1,1.1-33.5,13-36.8,30.8l-0.2,1.2l-0.1,1.2c-0.4,3.7-0.9,7.2-1.4,10.4
		c-2.8,17.5-6.9,27.1-7.8,29.2c-12.3,26.9-30.6,41.2-59.2,46.5c-32.5,5.9-65.3,12.5-97,18.8c-27.9,5.5-56.7,11.3-85,16.5
		c-26,4.8-50.6,21.2-67.5,45c-17.5,24.5-24.8,53.6-20.7,81.8c4.1,28.2,12.1,53.8,21.4,76.1c-20.5-24.8-37-52.9-48.5-83.3l-18.5-48.9
		l-32.9,40.6c-7.7,9.5-18.8,15-30.5,15c-22,0-40-18.3-40-40.7V429.5c0-19.7,13.9-36.5,33-40l64.7,79.5l24.3-73.6
		c3.7-9.8,7.8-19.3,12.5-28.6c21.6-43.2,53.4-80.4,93.2-108.6c49.4-35,107.7-53.6,168.4-53.6c61,0,119.5,18.7,169,54
		c42,29.9,75,69.8,96.5,116.2c3.3,7.2,6.4,14.5,9.1,21.9l24.5,66.3l39.7-83.5c1-2.2,3.3-3.6,5.7-3.6l21.1,0c1,0,1.8,0,2.6-0.1
		c22.6,0.5,40.9,18.8,40.9,41.3V558.4z"/>
	<path d="M522,757.2c4.4,0,8.8-0.3,13.3-0.8c42.9-5.1,79.3-35.1,92.8-76.4c1-3.1-0.5-6.4-3.4-7.8c-2.9-1.4-6.5-0.2-8.1,2.6
		c-0.2,0.3-17.2,27.8-83.5,36.8c-9.9,1.3-19.6,2-28.8,2c-46.5,0-67.2-17.5-67.4-17.7c-2.3-2.1-5.9-2.1-8.3-0.1c-2.4,2-3,5.5-1.3,8.2
		C447.4,736.8,483.7,757.2,522,757.2z"/>
</g>
</svg>
