<?xml version="1.0" standalone="no"?><!DOCTYPE svg PUBLIC "-//W3C//DTD SVG 1.1//EN" "http://www.w3.org/Graphics/SVG/1.1/DTD/svg11.dtd"><svg t="1711018457148" class="icon" viewBox="0 0 3260 1024" version="1.1" xmlns="http://www.w3.org/2000/svg" p-id="43030" xmlns:xlink="http://www.w3.org/1999/xlink" width="152.8125" height="48"><path d="M2918.4 97.684211H1057.010526L980.884211 19.536842H334.821053L6.736842 358.4l646.063158 651.452632 130.694737-130.021053 2134.905263-0.673684c166.4 2.021053 303.157895-163.705263 313.936842-362.442106 11.452632-217.6-130.694737-419.705263-313.936842-419.031578zM116.547368 358.4L377.263158 97.684211h547.031579l260.715789 260.715789L653.473684 889.936842 116.547368 358.4z" fill="#9E9F9F" p-id="43031"></path><path d="M2446.147368 399.494737c-7.410526 55.915789-30.989474 101.052632-71.410526 136.08421-38.4 33.010526-83.536842 49.178947-134.063158 49.178948H2048l-16.168421 123.957894h-114.526316l33.010526-251.957894h317.978948c15.494737 0 29.642105-5.389474 41.768421-16.168421 12.126316-10.778947 19.536842-24.926316 21.557895-42.442106 2.021053-17.515789-1.347368-31.663158-10.778948-41.768421s-22.231579-15.494737-37.726316-15.494736h-317.305263l92.294737-127.326316h231.073684c50.526316 0 90.273684 16.168421 120.589474 49.178947 31.663158 35.705263 43.789474 80.842105 36.378947 136.757895z m-705.347368 309.221052l64.673684-494.48421h114.526316l-64.673684 494.48421h-114.526316z m-293.052632 7.410527c-18.189474 0-34.357895-18.863158-47.831579-56.589474L1239.578947 214.231579h123.957895l108.463158 305.852632 179.873684-305.852632h125.305263L1509.052632 660.884211c-22.231579 37.052632-42.442105 55.242105-61.305264 55.242105zM116.547368 358.4l260.042106-260.715789h547.031579l260.715789 260.715789-531.536842 531.536842z" fill="#FFFFFF" p-id="43032"></path><path d="M877.810526 333.473684L650.105263 561.178947 422.4 333.473684H262.063158l386.694737 386.694737 1.347368-1.347368 1.347369 1.347368 386.694736-386.694737z" fill="#9E9F9F" p-id="43033"></path><path d="M2574.821053 709.389474V207.494737h334.821052v502.568421h-334.821052zM2708.210526 625.852632h134.063158V291.031579H2708.210526v334.821053z" fill="#FFFFFF" p-id="43034"></path></svg>