<?xml version="1.0" standalone="no"?><!DOCTYPE svg PUBLIC "-//W3C//DTD SVG 1.1//EN" "http://www.w3.org/Graphics/SVG/1.1/DTD/svg11.dtd"><svg t="1711018437821" class="icon" viewBox="0 0 3332 1024" version="1.1" xmlns="http://www.w3.org/2000/svg" p-id="40944" xmlns:xlink="http://www.w3.org/1999/xlink" width="156.1875" height="48"><path d="M3006.773673 80.866242H1084.580892L1005.997452 0.173248H338.919745L0 349.847983l667.084501 672.518047 135.290021-134.559661 2204.399151-0.738853c171.86242 2.202972 312.805096-168.966454 323.932059-373.971975 12.203822-224.699788-134.680255-433.331635-323.932059-432.229299zM112.97155 349.847983L381.953291 80.866242h564.86794l268.98344 268.981741-548.72017 548.6862L112.97155 349.847983z m0 0" fill="#9EC4F6" p-id="40945"></path><path d="M820.461996 360.915499L666.281104 156.25138l-152.793206 205.757962-155.877707-138.495117 79.631423 431.529512h458.087473l79.631423-431.529512-154.498514 137.401274z m0 0" fill="#A4D8E4" p-id="40946"></path><path d="M820.461996 360.915499L666.281104 156.25138l-0.310828 0.29724v498.5138h229.358811l79.631423-431.548195-154.498514 137.401274z m0 0" fill="#95D3E8" p-id="40947"></path><path d="M414.131635 529.803822l57.219533-97.70361-113.740977-208.585987 56.521444 306.289597z m0 0" fill="#B5D3D8" p-id="40948"></path><path d="M513.487898 362.009342l-42.13673 70.09087-113.740977-208.585987 155.877707 138.495117z m0 0" fill="#85C6D8" p-id="40949"></path><path d="M863.349469 432.100212l55.087898 97.70361 56.523143-306.289597-111.611041 208.585987z m0 0" fill="#B5D3D8" p-id="40950"></path><path d="M820.461996 360.915499l42.887473 71.184713 111.611041-208.585987-154.498514 137.401274z m0 0" fill="#85C6D8" p-id="40951"></path><path d="M635.675584 379.478556c0 22.724416 5.739278 43.670488 15.047134 55.048833 9.309554 11.380042 20.760934 11.366454 30.068789 0 9.309554-11.364756 15.048832-32.324416 15.048833-55.048833 0-22.717622-5.739278-43.670488-15.048833-55.048832-9.306157-11.378344-20.771125-11.351168-30.068789 0-9.294268 11.352866-15.047134 32.390658-15.047134 55.048832z m0 0" fill="#F7F7F7" p-id="40952"></path><path d="M638.833121 353.278981a14.233546 14.233546 0 1 0 28.470488 0c0-7.86242-6.369427-14.238641-14.231847-14.238641s-14.238641 6.376221-14.238641 14.238641z m0 0" fill="#FFFFFF" p-id="40953"></path><path d="M1396.964756 300.849257c-2.838217 0-5.627176 1.061571-8.358387 3.177919-2.741401 2.116348-4.322718 4.93758-4.755838 8.465393l-16.968153 138.185987c-0.38896 3.179618 0.499363 6.000849 2.676858 8.473886 2.169002 2.473036 4.676008 3.701062 7.514225 3.701061h229.46242c9.204246 0 16.698089 3.104883 22.495117 9.295966 5.786837 6.199575 8.118896 13.902335 6.989384 23.106582l-20.67431 168.378769c-1.13121 9.204246-5.353715 16.905308-12.664119 23.106581-7.317197 6.192781-15.573673 9.295966-24.777919 9.295966H1269.829299l-12.414437-28.684501h263.456476c3.534607 0 6.690446-1.153291 9.453927-3.45138 2.756688-2.30828 4.338004-5.046285 4.728663-8.234395l18.783864-152.973248c0.348195-2.831423-0.570701-5.4862-2.738004-7.967728-2.177495-2.473036-5.03949-3.716348-8.574098-3.716349H1313.06327c-8.856051 0-16.084926-3.096391-21.698514-9.295966-5.613588-6.192781-7.855626-13.893843-6.722718-23.106581l18.912951-154.036518c1.13121-9.204246 5.284076-17.080255 12.461996-23.638217 7.179618-6.547771 15.191507-9.825902 24.047559-9.825902h328.256475l-3.650106 29.746072H1396.964756zM2100.681104 271.103185l-192.242887 406.338853c-2.819533 5.659448-6.829724 10.174098-12.022081 13.543949-5.194055 3.361359-10.802548 5.047983-16.820382 5.047983h-45.67983c-6.026327 0-11.303609-1.684926-15.845436-5.047983-4.552017-3.368153-7.356263-7.884501-8.429724-13.543949L1709.214437 271.103185h81.26879l89.372399 362.252229c0.487473 1.774947 1.615287 2.654777 3.391932 2.654777 1.766454 0 3.113376-0.881529 4.044162-2.654777l171.427601-362.252229h41.961783zM2115.425902 696.03397l52.176646-424.930785h83.923567l-52.176646 424.930785h-83.923567zM2645.642463 271.103185c8.84586 0 16.168153 3.104883 21.963482 9.295966 5.786837 6.199575 8.140977 13.727389 7.053928 22.574947l-25.890446 210.872187c-1.088747 8.856051-5.301062 16.465393-12.633546 22.838216-7.33758 6.374522-15.432696 9.560934-24.278556 9.560934h-248.584289l-18.391507 149.788535h-82.860298l48.261572-393.061571c1.087049-8.847558 5.199151-16.373673 12.334607-22.574947 7.133758-6.191083 15.300212-9.295966 24.512951-9.295966h298.512102z m-56.146072 41.961783c0.43482-3.536306-0.361783-6.457749-2.376221-8.764331-2.024628-2.299788-4.803397-3.45138-8.338004-3.45138h-173.158387c-3.544798 0-6.608917 1.153291-9.188959 3.45138-2.590234 2.306582-4.095117 5.229724-4.529937 8.764331l-24.978344 203.434395h185.377495c3.534607 0 6.597028-1.146497 9.187261-3.453078 2.581741-2.299788 4.093418-5.219533 4.529936-8.764332l23.47516-191.216985z" fill="#FFFFFF" p-id="40954"></path><path d="M2922.642887 282.026327c9.681529-1.037792 17.987261 1.557537 24.912102 7.784289 6.916348 6.22845 10.377919 14.362633 10.37792 24.392356v383.016561h-81.999151V329.773248c0-3.802972-1.385987-6.916348-4.151168-9.341825-2.773673-2.415287-5.888747-3.454777-9.341826-3.113376l-51.380042 5.708705V293.961783l111.582165-11.935456z" fill="#FFFFFF" p-id="40955"></path></svg>