<?xml version="1.0" encoding="utf-8"?>
<svg width="100%" height="100%" xmlns="http://www.w3.org/2000/svg" xmlns:xlink="http://www.w3.org/1999/xlink" viewBox="0 0 1024 1024" preserveAspectRatio="xMidYMid"><path d="M853 185.5L512 64 171 185.5s-56.2 377.7 0 485.9c47.8 92 341 288.6 341 288.6s293.2-196.6 341-288.6c56.2-108.2 0-485.9 0-485.9zM667 642.7H543v119.9h-62V487c-54.3-13.6-94.7-61.9-94.7-119.3 0-67.9 56.4-123.1 125.7-123.1 69.3 0 125.7 55.2 125.7 123.1 0 57.4-40.3 105.8-94.7 119.3v91.7h124v64z" fill="#9c8cdd"></path><path d="M572.3 367.6c0-32.6-27.1-59.1-60.3-59.1s-60.3 26.5-60.3 59.1 27.1 59.1 60.3 59.1 60.3-26.5 60.3-59.1z" fill="#9c8cdd"></path></svg>