<?xml version="1.0" encoding="utf-8"?>
<svg width="100%" height="100%" xmlns="http://www.w3.org/2000/svg" xmlns:xlink="http://www.w3.org/1999/xlink" viewBox="0 0 1024 1024" preserveAspectRatio="xMidYMid"><path d="M553.472 799.44533333h0.085333l37.290667-105.386667a85.333333 85.333333 0 1 0-157.44 0.512l36.992 104.874667h0.128a42.666667 42.666667 0 0 0 82.944 0zM256 448.00000033V320.00000033a256 256 0 1 1 512 0v128h42.666667c23.552 0 42.666667 19.456 42.666666 42.752v383.573333C853.333333 921.60000033 815.146667 960.00000033 768.256 960.00000033H255.744A85.461333 85.461333 0 0 1 170.666667 874.28266633v-383.530666A42.666667 42.666667 0 0 1 213.333333 448.00000033h42.666667z m85.333333 0h341.333334V320.00000033H341.333333v128z m0-128h341.333334a170.666667 170.666667 0 1 0-341.333334 0z" fill="#ff007f"></path></svg>