<?xml version="1.0" encoding="utf-8"?>
<svg width="100%" height="100%" xmlns="http://www.w3.org/2000/svg" xmlns:xlink="http://www.w3.org/1999/xlink" viewBox="0 0 1024 1024" preserveAspectRatio="xMidYMid"><path d="M732.93453212 70.13093706a110.46726541 110.46726541 0 0 1 110.46726541 110.46726541v662.80359506a110.46726541 110.46726541 0 0 1-110.46726541 110.46726541H291.06546788a110.46726541 110.46726541 0 0 1-110.46726541-110.46726541V180.59820247a110.46726541 110.46726541 0 0 1 110.46726541-110.46726541h441.86906424z m-220.93453212 662.80359506a55.23363335 55.23363335 0 1 0 0 110.46726541 55.23363335 55.23363335 0 0 0 0-110.46726541z m165.70089876-552.33632965H346.29910124a55.23363335 55.23363335 0 0 0-55.23363336 55.23363335v331.40179753a55.23363335 55.23363335 0 0 0 55.23363336 55.23363206h331.40179752a55.23363335 55.23363335 0 0 0 55.23363336-55.23363206V235.83183582a55.23363335 55.23363335 0 0 0-55.23363336-55.23363335z" fill="#fe943c"></path></svg>