<?xml version="1.0" encoding="utf-8"?>
<svg width="100%" height="100%" xmlns="http://www.w3.org/2000/svg" xmlns:xlink="http://www.w3.org/1999/xlink" viewBox="0 0 1024 1024" preserveAspectRatio="xMidYMid"><path d="M578.384 493.04266667l5.904-4.068c59.688-41.256 95.976-113.292 96.12-190.836C676.988 173.18266667 583.892 73.78666667 470.132 73.78666667 356.48 73.78666667 263.42 173.14666667 260 298.13866667c0.432 60.768 22.824 118.872 62.208 161.496 39.42 42.66 92.592 66.348 147.888 65.844a198.036 198.036 0 0 0 108.288-32.436z m101.628 342.108h-46.476v-186.984h-15.84v-17.028h61.776v98.352l76.32-98.352h77.328l-153.108 204.012z m28.8-335.844c-80.676-0.072-153.468 53.28-184.392 135.216-30.924 81.9-13.896 176.22 43.128 238.968 56.988 62.748 142.776 81.54 217.332 47.628 74.52-33.912 123.12-113.868 123.12-202.572 0.036-58.104-20.916-113.904-58.32-155.016-37.332-41.112-88.02-64.224-140.904-64.224z" fill="#7f00ff"></path><path d="M495.44 817.18666667a306.072 306.072 0 0 1 0-217.224 279.252 279.252 0 0 1 29.88-58.104H398.06c-74.16-0.648-145.584 31.32-198.504 88.848C146.636 688.30666667 116.612 766.71466667 116 848.79466667v19.728c0 69.12 126.288 69.12 282.06 69.12h185.328a261.36 261.36 0 0 1-33.948-31.392 277.56 277.56 0 0 1-54-89.028" fill="#7f00ff"></path></svg>