<svg xmlns="http://www.w3.org/2000/svg" width="36" height="36" viewBox="0 0 36 36">
  <g id="组_885" data-name="组 885" transform="translate(-289 -650)">
    <circle id="椭圆_52" data-name="椭圆 52" cx="18" cy="18" r="18" transform="translate(289 650)" fill="#efefef"/>
    <path id="about-us" d="M86.407,27.679a10,10,0,1,0-12.736.064,6.75,6.75,0,0,1,12.736-.064Zm-1.554,1.068a4.952,4.952,0,0,0-9.618.046,10.014,10.014,0,0,0,9.618-.046Zm-1.1-10.621A3.75,3.75,0,1,1,80,14.375,3.75,3.75,0,0,1,83.75,18.125Zm-1.75,0a2,2,0,1,1-2-2A2,2,0,0,1,82,18.125Z" transform="translate(227 648)" fill="#929292" fill-rule="evenodd"/>
  </g>
</svg>
