<svg xmlns="http://www.w3.org/2000/svg" width="27" height="27" viewBox="0 0 27 27">
  <g id="noun-calendar-4594900" transform="translate(-116.2 -55.1)">
    <path id="路径_481" data-name="路径 481" d="M202.438,61.458h2.85a.54.54,0,0,0,.538-.538V55.638a.54.54,0,0,0-.538-.538h-2.85a.54.54,0,0,0-.538.538v5.283a.54.54,0,0,0,.538.538Z" transform="translate(-80.746)" fill="#9853fb"/>
    <path id="路径_482" data-name="路径 482" d="M141.2,100.7h-1.468v3.185a1.623,1.623,0,0,1-1.618,1.618h-2.844a1.623,1.623,0,0,1-1.618-1.618V100.7h-7.116v3.185a1.623,1.623,0,0,1-1.618,1.618h-2.85a1.623,1.623,0,0,1-1.618-1.618V100.7h-1.468a2.387,2.387,0,0,0-2.382,2.387v3.642h26.977v-3.642A2.382,2.382,0,0,0,141.2,100.7Z" transform="translate(-0.377 -42.964)" fill="#9853fb"/>
    <path id="路径_483" data-name="路径 483" d="M430.838,61.458h2.844a.537.537,0,0,0,.538-.538V55.638a.537.537,0,0,0-.538-.538h-2.844a.537.537,0,0,0-.538.538v5.283A.537.537,0,0,0,430.838,61.458Z" transform="translate(-295.944)" fill="#9853fb"/>
    <g id="组_631" data-name="组 631" transform="translate(116.2 64.84)">
      <path id="路径_484" data-name="路径 484" d="M422,306.8a1.777,1.777,0,0,0-1.549.78,3.982,3.982,0,0,0-.549,2.289v.474a4.116,4.116,0,0,0,.543,2.3,1.771,1.771,0,0,0,1.566.815,1.752,1.752,0,0,0,1.543-.786,4.112,4.112,0,0,0,.543-2.295V309.9a4.068,4.068,0,0,0-.543-2.312A1.784,1.784,0,0,0,422,306.8Z" transform="translate(-402.345 -301.991)" fill="#9853fb"/>
      <path id="路径_485" data-name="路径 485" d="M274.427,308.5H272.6v3.035h1.78a1.757,1.757,0,0,0,1.208-.37A1.351,1.351,0,0,0,276,310.1a1.492,1.492,0,0,0-1.578-1.6Z" transform="translate(-263.56 -303.592)" fill="#9853fb"/>
      <path id="路径_486" data-name="路径 486" d="M143.177,223.6H116.2v13.879a2.386,2.386,0,0,0,2.382,2.382H140.8a2.386,2.386,0,0,0,2.382-2.382ZM121.4,236.571H119.4v-9.676H121.4Zm8.283-4.231a4.043,4.043,0,0,1-2.694.821H125.24v3.41h-1.994v-9.676h3.775a4.379,4.379,0,0,1,1.919.4,2.927,2.927,0,0,1,1.272,1.133,3.18,3.18,0,0,1,.445,1.671A2.771,2.771,0,0,1,129.68,232.34Zm10.295-.387a5.844,5.844,0,0,1-.5,2.5,3.8,3.8,0,0,1-1.445,1.659,4.27,4.27,0,0,1-4.3.006,3.852,3.852,0,0,1-1.462-1.653,5.676,5.676,0,0,1-.526-2.468v-.48a5.83,5.83,0,0,1,.514-2.514,3.85,3.85,0,0,1,1.457-1.671,4.252,4.252,0,0,1,4.3,0A3.858,3.858,0,0,1,139.466,229a5.822,5.822,0,0,1,.514,2.509v.439Z" transform="translate(-116.2 -223.6)" fill="#9853fb"/>
    </g>
  </g>
</svg>
