<?xml version="1.0" encoding="utf-8"?>
<!-- Generator: Adobe Illustrator 16.0.0, SVG Export Plug-In . SVG Version: 6.00 Build 0)  -->
<!DOCTYPE svg PUBLIC "-//W3C//DTD SVG 1.1//EN" "http://www.w3.org/Graphics/SVG/1.1/DTD/svg11.dtd">
<svg version="1.1" id="图层_1" xmlns="http://www.w3.org/2000/svg" xmlns:xlink="http://www.w3.org/1999/xlink" x="0px" y="0px"
	 width="48px" height="48px" viewBox="0 0 48 48" enable-background="new 0 0 48 48" xml:space="preserve">
<path fill="#33CC33" d="M24,0C17.197,0.188,11.527,2.551,7.039,7.039S0.188,17.197,0,24c0.188,6.803,2.551,12.473,7.039,16.961
	S17.197,47.812,24,48c6.804-0.188,12.473-2.551,16.961-7.039S47.812,30.803,48,24c-0.188-6.803-2.551-12.473-7.039-16.961
	S30.804,0.188,24,0L24,0z M38.504,32.646c0,1.56-1.181,2.693-2.74,2.693c-1.512,0-2.692-1.134-2.692-2.693V21.401
	c-0.048-1.748-1.37-3.118-3.213-3.118c-1.748,0-3.071,1.37-3.118,3.118v11.244c-0.048,1.56-1.181,2.693-2.74,2.693
	c-1.559,0-2.693-1.134-2.74-2.693V21.401c-0.047-1.748-1.323-3.118-3.166-3.118c-1.748,0-3.118,1.37-3.165,3.118v11.244
	c0,1.56-1.181,2.693-2.74,2.693c-1.512,0-2.693-1.134-2.693-2.693v-11.48c0.047-2.41,0.897-4.441,2.504-6
	c1.653-1.606,3.685-2.457,6.094-2.504c2.315,0,4.347,0.804,5.906,2.268c0-0.094,0.52-0.473,1.512-1.134
	c1.039-0.661,2.504-1.039,4.394-1.134c2.41,0.047,4.441,0.898,6.048,2.504c1.653,1.56,2.504,3.591,2.551,6V32.646z"/>
</svg>
