<svg xmlns="http://www.w3.org/2000/svg" width="36" height="36" viewBox="0 0 36 36">
  <g id="组_883" data-name="组 883" transform="translate(-50 -650)">
    <circle id="椭圆_49" data-name="椭圆 49" cx="18" cy="18" r="18" transform="translate(50 650)" fill="#efefef"/>
    <path id="help" d="M139.99,131.748a10.009,10.009,0,0,0-8.8,8.029,10.132,10.132,0,0,0,7.851,11.8,14.245,14.245,0,0,0,5.359-.385,9.916,9.916,0,0,0,6.618-8.029,11.657,11.657,0,0,0-.976-5.927,9.848,9.848,0,0,0-10.054-5.487Zm.9,16.081a1.45,1.45,0,0,1,0-2.9,1.45,1.45,0,1,1,0,2.9Zm3.179-6.692a11.4,11.4,0,0,1-1.1.847,2.021,2.021,0,0,0-.9,1.745h-2.308a2.429,2.429,0,0,1,.692-2.336,12.137,12.137,0,0,0,1.255-.976,3.767,3.767,0,0,0,.82-1.232,1.248,1.248,0,0,0-.742-1.411,1.566,1.566,0,0,0-1.9.54,9.533,9.533,0,0,0-.435,1.154H137.3a3.355,3.355,0,0,1,1.489-3.257,4.919,4.919,0,0,1,5.336.463,3.01,3.01,0,0,1-.055,4.461Z" transform="translate(-73.013 526.327)" fill="#929292"/>
  </g>
</svg>
