<svg xmlns="http://www.w3.org/2000/svg" width="20.431" height="20" viewBox="0 0 20.431 20">
  <g id="fund-report" transform="translate(-153.5 -157.7)">
    <path id="Path_432" data-name="Path 432" d="M164.937,157.7h-9.7a1.742,1.742,0,1,0,0,3.483h9.691a1.742,1.742,0,0,0,.005-3.483Z" fill="#fa5f43"/>
    <path id="Path_433" data-name="Path 433" d="M155.242,240.583h8.4a7.016,7.016,0,0,1,2.9-1.076,1.71,1.71,0,0,0,.135-.665,1.742,1.742,0,0,0-1.742-1.742h-9.691a1.742,1.742,0,1,0,0,3.483Z" transform="translate(0 -75.272)" fill="#fa5f43"/>
    <path id="Path_434" data-name="Path 434" d="M155.242,319.983h5.4a7.1,7.1,0,0,1,2.152-3.483h-7.549a1.742,1.742,0,1,0,0,3.483Z" transform="translate(0 -150.544)" fill="#fa5f43"/>
    <path id="Path_435" data-name="Path 435" d="M155.242,399.383h5.547a7.083,7.083,0,0,1-.39-2.313,7.2,7.2,0,0,1,.1-1.17h-5.256a1.742,1.742,0,1,0,0,3.483Z" transform="translate(0 -225.816)" fill="#fa5f43"/>
    <path id="Path_436" data-name="Path 436" d="M155.242,478.783h9.29a7.117,7.117,0,0,1-3.483-3.483h-5.807a1.742,1.742,0,1,0,0,3.483Z" transform="translate(0 -301.088)" fill="#fa5f43"/>
    <path id="Path_437" data-name="Path 437" d="M305.141,294.6a6.441,6.441,0,1,0,6.441,6.441,6.45,6.45,0,0,0-6.441-6.441Zm2.459,3.509-2.137,3.067v.021h1.18a.322.322,0,0,1,0,.645h-1.18v.79h1.18a.322.322,0,0,1,0,.645h-1.18v.868a.322.322,0,0,1-.645,0v-.868h-1.18a.322.322,0,0,1,0-.645h1.18v-.785h-1.18a.322.322,0,0,1,0-.645h1.18v-.021l-2.137-3.067a.325.325,0,0,1,.535-.369l1.929,2.771,1.929-2.771a.33.33,0,0,1,.452-.083.322.322,0,0,1,.073.447Z" transform="translate(-137.651 -129.783)" fill="#fa5f43"/>
  </g>
</svg>
