<svg xmlns="http://www.w3.org/2000/svg" width="32.815" height="32" viewBox="0 0 32.815 32">
  <g id="beginer" transform="translate(-98 -118.175)">
    <path id="路径_263" data-name="路径 263" d="M203.373,298.739a1.9,1.9,0,0,1-1.231,0L192.5,294.5v5.267c0,2.266,4.59,4.1,10.255,4.1s10.255-1.836,10.255-4.1V294.5l-5.977,2.63Z" transform="translate(-88.347 -164.844)" fill="#ffb853"/>
    <path id="路径_264" data-name="路径 264" d="M130.405,125.1l-15.379-6.771a1.326,1.326,0,0,0-1.231,0L98.41,125.1a.717.717,0,0,0,0,1.3l5.743,2.526,5.977,2.63,3.659,1.608a1.9,1.9,0,0,0,1.231,0l3.659-1.608,5.977-2.63,2.051-.905V127.9l-2.051-.345-6.973-1.159-4.1-.684a.7.7,0,1,1,.273-1.367l13.673,2.324a.743.743,0,0,1,.547.684v.065l2.324-1.022a.715.715,0,0,0,.007-1.3Z" transform="translate(0 0)" fill="#ffb853"/>
    <path id="路径_265" data-name="路径 265" d="M519.367,269.521a1.36,1.36,0,0,0-.684,1.185,1.435,1.435,0,0,0,.072.443,2.019,2.019,0,0,0-.755,1.608c0,1.165,2.051,4.1,2.051,4.1s2.051-2.936,2.051-4.1a2.038,2.038,0,0,0-.755-1.608,1.4,1.4,0,0,0,.072-.443,1.36,1.36,0,0,0-.684-1.185V260.1l-1.367.6Z" transform="translate(-392.654 -132.684)" fill="#ffb853"/>
  </g>
</svg>
