<svg xmlns="http://www.w3.org/2000/svg" width="20.606" height="20" viewBox="0 0 20.606 20">
  <g id="withdraw-report" transform="translate(-105 -112.2)">
    <path id="Path_431" data-name="Path 431" d="M115.294,112.2a.629.629,0,0,0-.324.093.092.092,0,0,1-.021.013c-.013.008-.021.017-.034.025s-.008,0-.013.008a.194.194,0,0,0-.029.029.253.253,0,0,0-.034.034l0,0-2.489,1.863a.644.644,0,1,0,.77,1.03l1.543-1.152v3.865a.643.643,0,1,0,1.287,0v-3.865l1.548,1.156a.644.644,0,1,0,.77-1.03l-2.473-1.85a.645.645,0,0,0-.311-.189h0l-.059-.013a.311.311,0,0,0-.122-.021Zm-7.729,1.3a.643.643,0,0,0-.631.652v2.574a.644.644,0,0,0,1.287,0v-2.574a.643.643,0,0,0-.656-.652Zm1.939,0a.644.644,0,0,0-.639.652v2.574a.644.644,0,1,0,1.287,0v-2.574A.644.644,0,0,0,109.5,113.5Zm12.872,0a.643.643,0,0,0-.631.652v2.574a.644.644,0,1,0,1.283,0v-2.574a.644.644,0,0,0-.652-.652Zm1.93,0a.643.643,0,0,0-.631.652v2.574a.644.644,0,1,0,1.287,0v-2.574A.648.648,0,0,0,124.306,113.5Zm-18.082,5.795a1.545,1.545,0,0,0-.24.025,1.249,1.249,0,0,0-.887.723,1.2,1.2,0,0,0-.1.471v10.433a1.236,1.236,0,0,0,1.228,1.219H115.2a.372.372,0,0,0,.1,0h0a.371.371,0,0,0,.1,0h1.972c.046,0,.126-.038.109-.08-.029-.084-.16-.147-.235-.21a1.713,1.713,0,0,1-.366-2.38l.9-1.224c.551-.753,1.674-1.463,2.426-.913.416.16.4-.172.383-1.249a1.8,1.8,0,0,1,1.8-1.707h1.514a1.612,1.612,0,0,1,1.375.589c.378.13.332-.223.332-1.871v-2.607a1.165,1.165,0,0,0-.1-.471,1.234,1.234,0,0,0-.883-.723,1.161,1.161,0,0,0-.24-.025H106.224Zm1.712,2.574h2.208a.644.644,0,0,1,0,1.287H108A.644.644,0,0,1,107.935,121.864Zm7.368.643a3.219,3.219,0,1,1-3.217,3.221A3.229,3.229,0,0,1,115.3,122.507Zm7.359,2.578a1.569,1.569,0,0,0-1.556,1.556,1.533,1.533,0,0,0,.4,1.03,1.4,1.4,0,0,0-.383,1.232,1.532,1.532,0,0,0-.5-.631,1.57,1.57,0,0,0-2.174.336l-.816,1.119a1.556,1.556,0,1,0,2.511,1.838l.82-1.114a1.536,1.536,0,0,0,.278-1.11,1.588,1.588,0,0,0,.21.332,1.537,1.537,0,0,0-.353.971,1.566,1.566,0,0,0,1.556,1.556h1.384a1.57,1.57,0,0,0,1.56-1.556,1.541,1.541,0,0,0-.357-.971,1.532,1.532,0,0,0,.357-.971,1.517,1.517,0,0,0-.408-1.03,1.545,1.545,0,0,0,.408-1.03,1.572,1.572,0,0,0-1.56-1.556Z" fill="#d427fa"/>
  </g>
</svg>
