<svg xmlns="http://www.w3.org/2000/svg" width="24.182" height="20" viewBox="0 0 24.182 20">
  <g id="acc-verified" transform="translate(-106.7 -148.8)">
    <path id="Path_428" data-name="Path 428" d="M178.334,159.058a5.129,5.129,0,1,0-5.134-5.129A5.2,5.2,0,0,0,178.334,159.058Z" transform="translate(-63.195)" fill="#00a844"/>
    <path id="Path_429" data-name="Path 429" d="M118.618,383.2H111.66a4.961,4.961,0,0,0-4.96,4.96v1.3a2.059,2.059,0,0,0,2.087,2.087H121.4a2.059,2.059,0,0,0,2.087-2.087v-1.3A4.78,4.78,0,0,0,118.618,383.2Z" transform="translate(0 -222.75)" fill="#00a844"/>
    <path id="Path_430" data-name="Path 430" d="M411.957,221.038l-.606-.606a.94.94,0,0,1-.258-.606v-.87a.873.873,0,0,0-.87-.87h-.87a.8.8,0,0,1-.606-.258l-.616-.616a.943.943,0,0,0-1.3,0l-.606.606a.94.94,0,0,1-.606.258h-.87a.873.873,0,0,0-.87.87v.87a.8.8,0,0,1-.258.606l-.606.606a.943.943,0,0,0,0,1.3l.606.606a.94.94,0,0,1,.258.606v.87a.873.873,0,0,0,.87.87h.87a.8.8,0,0,1,.606.258l.606.606a.943.943,0,0,0,1.3,0l.606-.606a.94.94,0,0,1,.606-.258h.875a.873.873,0,0,0,.87-.87v-.85a.8.8,0,0,1,.258-.606l.606-.606A.949.949,0,0,0,411.957,221.038Zm-4.264,1.655-.7.7-.7-.7-.954-1.044.7-.7.954.954,2-2,.7.7Z" transform="translate(-281.336 -64.763)" fill="#00a844"/>
  </g>
</svg>
