<svg xmlns="http://www.w3.org/2000/svg" width="21.027" height="20.198" viewBox="0 0 21.027 20.198">
  <g id="unfav" transform="translate(-1.205 -2.164)">
    <path id="路径_320" data-name="路径 320" d="M12.5,3.147,14.949,8.1a.786.786,0,0,0,.632.463l5.413.8a.833.833,0,0,1,.463,1.434l-3.9,3.871a.817.817,0,0,0-.247.74l.941,5.444a.848.848,0,0,1-1.234.894l-4.873-2.575a.91.91,0,0,0-.8,0L6.467,21.744a.848.848,0,0,1-1.234-.894l.941-5.505a.817.817,0,0,0-.247-.74L1.98,10.8a.833.833,0,0,1,.509-1.434l5.413-.8A.786.786,0,0,0,8.534,8.1l2.452-4.95a.833.833,0,0,1,1.511,0Z" fill="none" stroke="#74747c" stroke-linecap="round" stroke-linejoin="round" stroke-width="1"/>
  </g>
</svg>
