<svg xmlns="http://www.w3.org/2000/svg" viewBox="0 0 25.297 26">
  <g id="exchange" transform="translate(-546.907 -561.956)">
    <path id="路径_298" data-name="路径 298" d="M565.047,569.416a.064.064,0,0,1,.06.06v3.969a.053.053,0,0,0,.011.04.056.056,0,0,0,.078.011l7.809-5.7h0c.03-.02.03-.07,0-.12l-7.809-5.7a.055.055,0,0,0-.03-.009.058.058,0,0,0-.058.059v3.979a.066.066,0,0,1-.06.06h-15.06a.064.064,0,0,0-.06.06v3.241a.066.066,0,0,0,.06.06Z" transform="translate(-0.824 0)" fill="#efc626"/>
    <path id="路径_299" data-name="路径 299" d="M554.739,593.382a.056.056,0,0,0,.031.009.059.059,0,0,0,.059-.059v-3.979a.063.063,0,0,1,.06-.06h15.06a.065.065,0,0,0,.06-.06V586a.065.065,0,0,0-.06-.06h-15.06a.064.064,0,0,1-.06-.06v-3.95a.056.056,0,0,0-.089-.05l-7.809,5.7-.012.012a.056.056,0,0,0,.012.078Z" transform="translate(0 -5.435)" fill="#efc626"/>
  </g>
</svg>
