<svg xmlns="http://www.w3.org/2000/svg" width="21.15" height="20" viewBox="0 0 21.15 20">
  <g id="deposit-reporrt" transform="translate(-83.9 -98.159)">
    <path id="Path_438" data-name="Path 438" d="M103.019,104.643a2.262,2.262,0,0,0,1.335.4l4.361-.2a.663.663,0,0,0,.512-.246.684.684,0,0,0,.179-.532.76.76,0,0,0-.6-.691l-.179-.044a16.79,16.79,0,0,0-2.824-.31l-.866-.024a.581.581,0,0,1-.357-.155.512.512,0,0,1-.135-.357.581.581,0,0,1,.155-.357.512.512,0,0,1,.357-.135l.822.024a16.165,16.165,0,0,1,3.09.357l.111.024a1.7,1.7,0,0,1,1.378,1.557v.2l2.713.822a.888.888,0,0,0,.89-.246.812.812,0,0,0,.222-.667.883.883,0,0,0-.334-.624l-5.362-4.091a2.506,2.506,0,0,0-1.756-.489l-3.293.357a.81.81,0,0,1-.556-.155l-1-.782a.549.549,0,0,0-.735.044l-2.335,2.335a.564.564,0,0,0,.068.846Z" transform="translate(-14.166)" fill="#1390fc"/>
    <path id="Path_439" data-name="Path 439" d="M179.5,296.235v5.271h1.045v-3.535a1.748,1.748,0,0,0,1.422-1.422h8.587a1.748,1.748,0,0,0,1.422,1.422v3.535h1.049v-5.271a.741.741,0,0,0-.735-.735H180.235a.741.741,0,0,0-.735.735Z" transform="translate(-91.803 -189.503)" fill="#1390fc"/>
    <path id="Path_440" data-name="Path 440" d="M285.3,340.082a2.614,2.614,0,0,0,.691,1.756h3.738a2.568,2.568,0,1,0-4.429-1.756Z" transform="translate(-193.401 -229.835)" fill="#1390fc"/>
    <path id="Path_441" data-name="Path 441" d="M104.49,357.1h-2.423v1.644h.691a.622.622,0,0,1,.624.624v1.6a.622.622,0,0,1-.624.624H86.144a.622.622,0,0,1-.624-.624v-1.6a.622.622,0,0,1,.624-.624h.691V357.1h-2.4a.54.54,0,0,0-.532.532v8.651a.54.54,0,0,0,.532.532h20.086a.54.54,0,0,0,.532-.532v-8.675a.564.564,0,0,0-.56-.508Z" transform="translate(0 -248.656)" fill="#1390fc"/>
    <path id="Path_442" data-name="Path 442" d="M436.111,384.6a.711.711,0,1,0,.711.711A.7.7,0,0,0,436.111,384.6Z" transform="translate(-337.539 -275.064)" fill="#1390fc"/>
    <path id="Path_443" data-name="Path 443" d="M228.2,385.311a.711.711,0,1,0,.711-.711.7.7,0,0,0-.711.711Z" transform="translate(-138.569 -275.064)" fill="#1390fc"/>
  </g>
</svg>
