<svg xmlns="http://www.w3.org/2000/svg" width="22.123" height="20" viewBox="0 0 22.123 20">
  <g id="position-actived" transform="translate(-84 -109.575)">
    <path id="路径_368" data-name="路径 368" d="M105.616,439.319l-2.982-1.119-5.382,2.026a5.98,5.98,0,0,1-2.188.4,6.439,6.439,0,0,1-2.188-.4L87.494,438.2l-2.982,1.119a.782.782,0,0,0-.512.769.815.815,0,0,0,.512.769l8.942,3.377a4.508,4.508,0,0,0,3.215,0l8.942-3.377a.776.776,0,0,0,.512-.769.81.81,0,0,0-.507-.769Z" transform="translate(0 -314.957)" fill="#F55D48"/>
    <path id="路径_369" data-name="路径 369" d="M105.616,305.515l-2.982-1.115-5.382,2.026a5.979,5.979,0,0,1-2.188.4,6.439,6.439,0,0,1-2.188-.4L87.494,304.4l-2.982,1.119a.778.778,0,0,0-.512.765.819.819,0,0,0,.512.769l8.942,3.377a4.508,4.508,0,0,0,3.215,0l8.942-3.377a.776.776,0,0,0,.512-.769.81.81,0,0,0-.507-.769Z" transform="translate(0 -186.722)" fill="#F55D48"/>
    <path id="路径_370" data-name="路径 370" d="M84.512,114.788l8.942,3.377a4.508,4.508,0,0,0,3.215,0l8.942-3.377a.794.794,0,0,0,.512-.769.815.815,0,0,0-.512-.769l-8.942-3.377a4.508,4.508,0,0,0-3.215,0l-8.942,3.382a.778.778,0,0,0-.512.765.836.836,0,0,0,.512.769Z" fill="#F55D48"/>
  </g>
</svg>
