<svg xmlns="http://www.w3.org/2000/svg" width="18.682" height="20" viewBox="0 0 18.682 20">
  <path id="news" d="M145.993,130.017V113.756a.457.457,0,0,0-.456-.456H129.356a.454.454,0,0,0-.456.456v16.261a3.289,3.289,0,0,0,3.283,3.283h15.4a4.188,4.188,0,0,1-1.589-3.283Zm-14.706-13.874a.452.452,0,0,1,.456-.456h5.315a.454.454,0,0,1,.456.456v5.319a.457.457,0,0,1-.456.456h-5.315a.454.454,0,0,1-.456-.456Zm12.163,14.419H131.739a.456.456,0,1,1,0-.913H143.45a.454.454,0,0,1,.456.456A.463.463,0,0,1,143.45,130.562Zm0-3.1H131.739a.456.456,0,0,1,0-.913H143.45a.456.456,0,0,1,0,.913Zm0-3.1H131.739a.456.456,0,0,1,0-.913H143.45a.454.454,0,0,1,.456.456A.46.46,0,0,1,143.45,124.36Zm.266-3.578h-4.508a.456.456,0,1,1,0-.913h4.508a.456.456,0,0,1,0,.913Zm0-3.05h-4.508a.456.456,0,1,1,0-.913h4.508a.454.454,0,0,1,.456.456.46.46,0,0,1-.456.456Z" transform="translate(-128.9 -113.3)" fill="#74747c"/>
</svg>
