<svg xmlns="http://www.w3.org/2000/svg" width="13.792" height="20" viewBox="0 0 13.792 20">
  <g id="ipo-actived" transform="translate(-160.6 -75.4)">
    <path id="路径_377" data-name="路径 377" d="M325.239,231.519a1.019,1.019,0,1,1-2.039,0,1.037,1.037,0,0,1,1.019-1.019A1.011,1.011,0,0,1,325.239,231.519Z" transform="translate(-156.68 -149.453)" fill="#F55D48"/>
    <g id="组_615" data-name="组 615" transform="translate(160.6 75.4)">
      <path id="路径_378" data-name="路径 378" d="M297.431,533.1a12.046,12.046,0,0,1-1.449,2.942.808.808,0,0,1-.666.393.757.757,0,0,1-.666-.393A11.983,11.983,0,0,1,293.2,533.1Z" transform="translate(-288.372 -516.435)" fill="#F55D48"/>
      <path id="路径_379" data-name="路径 379" d="M174.166,87.124l-3.255-2.509v-.47a14.9,14.9,0,0,0-1.686-7.726,1.922,1.922,0,0,0-3.372-.04,14.579,14.579,0,0,0-1.686,7.726v.47l-3.255,2.469a.743.743,0,0,0-.313.59v1.1a.769.769,0,0,0,.9.746l2.629-.55v.237a.914.914,0,0,0,.51.823l-.04.04a.8.8,0,0,0-.08.783.725.725,0,0,0,.666.43h4.588a.756.756,0,0,0,.586-1.212l-.04-.04a.914.914,0,0,0,.51-.823V88.93l2.629.55a.766.766,0,0,0,.9-.746v-1.1a.418.418,0,0,0-.2-.51Zm-6.627-.2a1.413,1.413,0,1,1,1.413-1.413A1.407,1.407,0,0,1,167.54,86.927Zm0-3.018a1.8,1.8,0,1,1,1.8-1.8A1.8,1.8,0,0,1,167.54,83.909Zm0,.979a.626.626,0,1,0,.626.626A.617.617,0,0,0,167.54,84.888Z" transform="translate(-160.6 -75.4)" fill="#F55D48"/>
    </g>
  </g>
</svg>
